<svg xmlns="http://www.w3.org/2000/svg" viewBox="0 0 400 300" width="400" height="300" role="img" aria-label="Bez obrázka">
  <rect width="400" height="300" fill="#eef2f7"/>
  <circle cx="200" cy="150" r="68" fill="#dde5ee"/>
  <path d="M152 108h96a12 12 0 0112 12v60a12 12 0 01-12 12h-96a12 12 0 01-12-12v-60a12 12 0 0112-12z" fill="#8fa1b6"/>
  <g fill="#eef2f7">
    <circle cx="171" cy="134" r="10"/>
    <path d="M140 174l30-26 24 21 28-32 38 43v0a12 12 0 01-12 12h-96a12 12 0 01-12-12z"/>
  </g>
</svg>
