<svg xmlns="http://www.w3.org/2000/svg" viewBox="0 0 400 300" width="400" height="300" role="img" aria-label="Podujatie">
  <rect width="400" height="300" fill="#eef2f7"/>
  <circle cx="200" cy="150" r="68" fill="#dde5ee"/>
  <g fill="#8fa1b6">
    <rect x="166" y="96" width="9" height="24" rx="4.5"/>
    <rect x="225" y="96" width="9" height="24" rx="4.5"/>
    <path d="M158 110h84a12 12 0 0112 12v76a12 12 0 01-12 12h-84a12 12 0 01-12-12v-76a12 12 0 0112-12z"/>
  </g>
  <g fill="#eef2f7">
    <rect x="146" y="138" width="108" height="5"/>
    <rect x="163" y="158" width="17" height="15" rx="3.5"/>
    <rect x="191" y="158" width="17" height="15" rx="3.5"/>
    <rect x="219" y="158" width="17" height="15" rx="3.5"/>
    <rect x="163" y="183" width="17" height="15" rx="3.5"/>
    <rect x="191" y="183" width="17" height="15" rx="3.5"/>
  </g>
</svg>
